<?xml version="1.0" encoding="UTF-8" standalone="no"?>
<!-- Created with Inkscape (http://www.inkscape.org/) -->

<svg
   xmlns:dc="http://purl.org/dc/elements/1.1/"
   xmlns:cc="http://creativecommons.org/ns#"
   xmlns:rdf="http://www.w3.org/1999/02/22-rdf-syntax-ns#"
   xmlns:svg="http://www.w3.org/2000/svg"
   xmlns="http://www.w3.org/2000/svg"
   xmlns:sodipodi="http://sodipodi.sourceforge.net/DTD/sodipodi-0.dtd"
   xmlns:inkscape="http://www.inkscape.org/namespaces/inkscape"
   width="29.663103mm"
   height="29.565529mm"
   viewBox="0 0 29.663103 29.565529"
   version="1.1"
   id="svg4653"
   inkscape:version="0.92.3 (2405546, 2018-03-11)"
   sodipodi:docname="demon-circle.svg">
  <defs
     id="defs4647" />
  <sodipodi:namedview
     id="base"
     pagecolor="#ffffff"
     bordercolor="#666666"
     borderopacity="1.0"
     inkscape:pageopacity="0.0"
     inkscape:pageshadow="2"
     inkscape:zoom="3.959798"
     inkscape:cx="-26.159691"
     inkscape:cy="68.670615"
     inkscape:document-units="mm"
     inkscape:current-layer="layer1"
     showgrid="false"
     inkscape:window-width="1920"
     inkscape:window-height="1027"
     inkscape:window-x="-8"
     inkscape:window-y="-8"
     inkscape:window-maximized="1" />
  <metadata
     id="metadata4650">
    <rdf:RDF>
      <cc:Work
         rdf:about="">
        <dc:format>image/svg+xml</dc:format>
        <dc:type
           rdf:resource="http://purl.org/dc/dcmitype/StillImage" />
        <dc:title></dc:title>
      </cc:Work>
    </rdf:RDF>
  </metadata>
  <g
     inkscape:label="Layer 1"
     inkscape:groupmode="layer"
     id="layer1"
     transform="translate(-115.56786,-82.520707)">
    <g
       id="g4744"
       transform="translate(23.527066,6.5832755)">
      <path
         style="fill:#e10a0b;stroke-width:0.12828283"
         d="m 105.51349,105.46056 c -2.47251,-0.34442 -3.86433,-0.72875 -5.34495,-1.4759 -4.067871,-2.05276 -6.925972,-5.772069 -7.878176,-10.252064 -0.3194,-1.502736 -0.3194,-4.526557 0,-6.029293 1.269627,-5.973427 5.925081,-10.503375 11.876156,-11.555988 1.23722,-0.218838 4.15066,-0.218838 5.38788,0 5.20081,0.919907 9.55203,4.596147 11.32428,9.567604 1.08338,3.039052 1.08338,6.967009 0,10.006061 -1.74124,4.88445 -5.98655,8.53704 -11.04798,9.50545 -0.98335,0.18814 -3.62059,0.33117 -4.31721,0.23413 z"
         id="path4752"
         inkscape:connector-curvature="0" />
      <path
         style="fill:#9d0103;stroke-width:0.12828283"
         d="m 105.51349,105.46056 c -2.47251,-0.34442 -3.86433,-0.72875 -5.34495,-1.4759 -4.067871,-2.05276 -6.925972,-5.772069 -7.878176,-10.252064 -0.3194,-1.502736 -0.3194,-4.526557 0,-6.029293 1.269627,-5.973427 5.925081,-10.503375 11.876156,-11.555988 1.23722,-0.218838 4.15066,-0.218838 5.38788,0 5.20081,0.919907 9.55203,4.596147 11.32428,9.567604 1.08338,3.039052 1.08338,6.967009 0,10.006061 -1.74124,4.88445 -5.98655,8.53704 -11.04798,9.50545 -0.98335,0.18814 -3.62059,0.33117 -4.31721,0.23413 z m -7.416913,-7.005553 c -0.04095,-0.102335 -0.07135,-0.07194 -0.07751,0.07751 -0.0056,0.135231 0.02475,0.210998 0.06738,0.168371 0.04263,-0.04263 0.04718,-0.153272 0.01013,-0.245876 z m 9.213783,0.02117 c 0.10265,-0.32342 -0.0185,-0.880835 -0.26222,-1.20644 -0.28066,-0.374968 -0.31874,-0.207672 -0.1522,0.66868 0.15746,0.828536 0.2741,0.979889 0.41442,0.53776 z m 3.75169,-2.120533 c 0.15242,-0.112348 0.15431,-0.158201 0.0113,-0.272936 -0.20532,-0.164677 -0.74921,-0.343584 -0.74921,-0.246443 0,0.220524 0.45139,0.967645 0.49845,0.825023 0.031,-0.09384 0.13874,-0.231377 0.2395,-0.305644 z m -2.6622,-0.506382 c 0.0878,-0.105834 0.23922,-0.192425 0.33642,-0.192425 0.0972,0 0.17672,-0.05773 0.17672,-0.128282 0,-0.07056 0.0821,-0.128283 0.1825,-0.128283 0.16904,0 0.77632,-0.501748 2.05931,-1.701436 l 0.51627,-0.48275 -0.3085,-0.25945 c -0.3206,-0.269633 -0.53538,-0.271261 -1.49143,-0.0113 -0.63502,0.172667 -1.02644,0.444709 -0.91028,0.632655 0.0618,0.100039 0.23953,0.08709 0.613,-0.04468 0.93941,-0.331444 1.61152,-0.132656 0.78231,0.231383 -1.17559,0.516103 -1.8374,1.021172 -2.15226,1.642523 -0.24041,0.474427 -0.27639,0.634474 -0.14263,0.634474 0.0984,0 0.25074,-0.08659 0.33857,-0.192425 z m -3.88913,-0.729609 c -0.041,-0.102335 -0.0714,-0.07194 -0.0775,0.07751 -0.006,0.13523 0.0247,0.210998 0.0674,0.168371 0.0426,-0.04263 0.0472,-0.153272 0.0101,-0.245876 z m 0.12533,-3.246318 c 0.2749,-0.201008 0.31091,-1.155386 0.0436,-1.155386 -0.10583,0 -0.22951,-0.05109 -0.27485,-0.113544 -0.0453,-0.06245 -0.16013,0.02414 -0.25511,0.192425 -0.25468,0.451224 -0.24165,3.072567 0.0168,3.385231 0.17436,0.210913 0.19591,0.120427 0.2296,-0.963847 0.0283,-0.911511 0.0855,-1.231937 0.23993,-1.344879 z m 4.911,-0.62951 c -0.0675,-0.476778 -0.17227,-0.963327 -0.23279,-1.081221 -0.0605,-0.117894 -0.11174,-0.570809 -0.11384,-1.006478 -0.005,-0.944573 -0.11962,-1.214461 -0.37116,-0.870466 -0.22113,0.302418 -0.21832,0.892211 0.0104,2.175723 0.35797,2.009189 0.97832,2.695316 0.70743,0.782442 z m -7.7769,-0.878654 c -0.10839,-3.571162 0.5579,-6.190764 1.95471,-7.685298 1.02413,-1.095769 1.94737,-1.535723 3.22958,-1.538991 l 0.54297,-0.0014 -0.19237,-0.371986 c -0.38099,-0.736768 -1.46615,-0.965755 -2.65577,-0.560413 -0.55697,0.189781 -2.96192,2.073874 -3.6473,2.857394 -0.29434,0.336473 -1.039406,1.786091 -1.114224,2.16784 -0.02436,0.124311 -0.07699,0.312612 -0.11694,0.418445 -0.429191,1.136894 -0.606091,1.952173 -0.596893,2.750919 l 0.01042,0.905141 0.210122,-0.673484 c 0.267594,-0.857699 0.53873,-0.893208 0.53873,-0.07056 0,0.705293 0.256035,0.612617 0.275255,-0.09963 0.007,-0.241536 0.0461,-0.727792 0.0879,-1.08057 l 0.0761,-0.641414 0.0871,0.769697 c 0.0479,0.423333 0.0934,1.159356 0.10107,1.635606 0.008,0.482469 0.0707,0.865909 0.1422,0.865909 0.0706,0 0.12873,-0.331932 0.12926,-0.737626 0.004,-2.724828 0.73203,-4.864008 2.15138,-6.31793 0.38747,-0.396913 0.36439,-0.337398 -0.19903,0.513132 -1.18927,1.795303 -1.63108,3.529875 -1.50223,5.897891 0.0638,1.171765 0.26851,2.183927 0.44178,2.183927 0.0452,0 0.0659,-0.533977 0.0461,-1.186616 z m -1.50686,-5.612374 c 0.0472,-0.176389 0.13928,-0.407298 0.20467,-0.513131 0.0826,-0.133733 0.0927,-0.09461 0.0331,0.128283 -0.0472,0.176388 -0.13929,0.407298 -0.20468,0.513131 -0.0826,0.133733 -0.0927,0.09461 -0.0331,-0.128283 z m 6.0849,5.548232 c 0.0935,-0.405694 0.1564,-1.15879 0.1398,-1.673546 -0.0425,-1.317253 0.0476,-1.616712 0.57142,-1.898789 0.24336,-0.131055 0.44246,-0.281231 0.44246,-0.333724 0,-0.05249 0.18762,-0.154626 0.41692,-0.226959 l 0.41692,-0.131516 -0.41692,0.0605 c -0.2293,0.03327 -0.41692,0.0042 -0.41692,-0.06458 0,-0.06879 0.15875,-0.132937 0.35278,-0.142545 0.3482,-0.01724 0.34861,-0.01828 0.0321,-0.08013 -0.30231,-0.05906 -0.30599,-0.06924 -0.0641,-0.177407 0.19369,-0.08663 0.15316,-0.09897 -0.16537,-0.05036 -1.14961,0.175437 -1.51469,0.939415 -2.04192,4.272938 -0.0749,0.473269 0.16911,1.183738 0.40648,1.183738 0.0861,0 0.23294,-0.331932 0.32642,-0.737627 z m -1.06897,-1.475252 c -0.0209,-1.110179 -0.0388,-1.183725 -0.27886,-1.141724 -0.32761,0.05732 -0.46166,0.271058 -0.37414,0.596522 0.11366,0.422626 0.59488,1.731818 0.63657,1.731818 0.0213,0 0.0287,-0.533977 0.0164,-1.186616 z m 5.94286,0.658343 c 0,-0.07055 -0.0577,-0.09261 -0.12829,-0.049 -0.0705,0.04361 -0.12828,0.13701 -0.12828,0.207566 0,0.07055 0.0577,0.09261 0.12828,0.049 0.0706,-0.04361 0.12829,-0.13701 0.12829,-0.207566 z m 2.26844,-1.29174 c -0.041,-0.102335 -0.0714,-0.07194 -0.0775,0.07751 -0.006,0.135231 0.0247,0.210998 0.0674,0.168371 0.0426,-0.04263 0.0472,-0.153271 0.0101,-0.245876 z m -1.62703,-0.360795 c 0,-0.07056 -0.0255,-0.128283 -0.0566,-0.128283 -0.0311,0 -0.0923,0.05773 -0.13585,0.128283 -0.0436,0.07055 -0.0182,0.128283 0.0566,0.128283 0.0747,0 0.13585,-0.05773 0.13585,-0.128283 z m -3.68813,-0.726374 c -0.0882,-0.03559 -0.23251,-0.03559 -0.32071,0 -0.0882,0.03559 -0.016,0.06471 0.16036,0.06471 0.17638,0 0.24854,-0.02912 0.16035,-0.06471 z m 2.26025,-1.510116 c 0.30828,-0.286875 0.74804,-0.810227 0.97724,-1.163005 0.43056,-0.662694 0.73231,-1.585196 0.46436,-1.419589 -0.0781,0.04827 -0.142,0.173812 -0.142,0.278985 0,0.429999 -0.44204,0.983178 -1.47524,1.846148 -1.11261,0.929294 -1.43557,1.42326 -0.73764,1.128195 0.19403,-0.08203 0.605,-0.383859 0.91328,-0.670734 z m 1.98612,-0.200884 c 0.0512,-0.379876 0.0417,-0.467608 -0.0278,-0.256565 -0.15774,0.478947 -0.29299,1.401357 -0.15988,1.090404 0.0604,-0.141112 0.14486,-0.516339 0.18767,-0.833839 z m -6.45925,0.192424 c 0,-0.105833 -0.0548,-0.192424 -0.12173,-0.192424 -0.11678,0 -0.37922,-0.773799 -0.63086,-1.860101 l -0.11887,-0.513131 -0.0118,0.513131 c -0.0186,0.804649 0.12341,1.437397 0.38575,1.71898 0.13254,0.142272 0.24098,0.318817 0.24098,0.392323 0,0.07351 0.0577,0.133647 0.12829,0.133647 0.0706,0 0.12828,-0.08659 0.12828,-0.192425 z m 6.63132,-1.312457 c -0.0325,-0.124815 -0.0613,-0.05376 -0.0639,0.157912 -0.003,0.211667 0.024,0.313788 0.0591,0.226936 0.0351,-0.08685 0.0373,-0.260033 0.005,-0.384848 z m 1.00032,-1.704494 c -0.18165,-0.351256 -0.18152,-0.394323 10e-4,-0.464481 0.17818,-0.06838 0.17992,-0.110285 0.015,-0.362 -0.10259,-0.15657 -0.20569,-0.451605 -0.2291,-0.655633 -0.0577,-0.503071 -0.54559,-0.676016 -1.25061,-0.443341 -0.5193,0.171386 -0.81775,0.431495 -1.19565,1.042058 l -0.20609,0.332985 0.63718,-0.06122 c 0.71351,-0.06856 1.50379,0.206865 2.02216,0.704753 0.40533,0.389322 0.44581,0.371006 0.20581,-0.09312 z"
         id="path4750"
         inkscape:connector-curvature="0" />
      <path
         style="fill:#5d0102;stroke-width:0.12828283"
         d="m 104.9489,105.39123 c -5.436872,-0.63046 -10.175717,-4.39131 -12.068585,-9.577896 -1.119363,-3.067128 -1.119363,-7.123641 0,-10.190769 2.653513,-7.270797 10.412825,-11.195918 18.071505,-9.141636 5.27254,1.414252 9.4267,5.892561 10.48474,11.302884 0.29945,1.531256 0.29945,4.337017 0,5.868273 -0.57373,2.93378 -1.91092,5.402896 -4.11211,7.593004 -3.22927,3.21302 -7.65009,4.69411 -12.37555,4.14614 z m -6.734698,-6.439894 c -0.120507,-0.642353 0.119265,-1.160823 0.683484,-1.477932 0.271239,-0.152445 0.640644,-0.277172 0.820902,-0.277172 0.180257,0 0.367232,-0.0639 0.415502,-0.142 0.12823,-0.207484 -0.652155,-0.02042 -1.353199,0.324377 -0.722281,0.355239 -1.028633,0.993884 -0.772907,1.611262 0.211163,0.509795 0.305768,0.492116 0.206218,-0.03853 z m 4.284638,0.04086 c 0,-0.141111 -0.0221,-0.256566 -0.0492,-0.256566 -0.027,0 -0.0794,0.115455 -0.11627,0.256566 -0.0369,0.141111 -0.0148,0.256565 0.0492,0.256565 0.064,0 0.11627,-0.115454 0.11627,-0.256565 z m 5.01805,-0.801641 c -0.24878,-1.428619 -0.29518,-1.339813 1.23697,-2.367186 1.8896,-1.26705 3.04565,-2.327505 2.93102,-2.68865 -0.16941,-0.533765 -0.67646,-0.597957 -1.90683,-0.241408 -1.42551,0.413096 -1.93023,0.800415 -1.40755,1.080146 0.16518,0.0884 0.46198,0.02145 1.08706,-0.245211 1.10255,-0.470348 1.24335,-0.277962 0.1927,0.263298 -0.96741,0.498374 -1.12171,0.627756 -1.57379,1.319642 -0.4056,0.620727 -1.23293,1.378275 -1.55722,1.425871 -0.45117,0.06622 -0.51091,0.423251 -0.13625,0.81431 0.2066,0.21565 0.34918,0.508141 0.34918,0.716348 0,0.40605 0.61126,1.062515 0.80704,0.86673 0.0758,-0.07578 0.0674,-0.428408 -0.0223,-0.94389 z m -2.71923,0.705429 c 0.12023,-0.20643 0.13123,-0.203849 0.13662,0.03207 0.005,0.212987 0.027,0.223882 0.13022,0.06414 0.18276,-0.282795 0.1552,-0.596172 -0.0724,-0.823813 -0.28735,-0.287349 -0.35855,-5.225599 -0.0887,-6.154737 0.24781,-0.853366 0.1268,-1.459661 -0.31339,-1.570141 -0.47364,-0.118876 -0.62097,0.146447 -0.78441,1.41259 -0.14545,1.126755 -0.0769,1.590257 0.4293,2.902768 0.3173,0.82272 0.34442,3.325678 0.0393,3.630842 -0.26437,0.264435 -0.16384,0.730774 0.15752,0.730774 0.12938,0 0.29407,-0.101023 0.36599,-0.224495 z m -3.64239,-0.905276 c -0.0395,-0.0395 -0.14301,-8.2e-5 -0.23003,0.08759 -0.12575,0.126695 -0.11102,0.14143 0.0718,0.07181 0.12652,-0.04817 0.19772,-0.119905 0.15822,-0.159402 z m 10.38399,-1.067087 c -0.0612,-0.278723 -0.0448,-0.374151 0.054,-0.313136 0.0781,0.04827 0.142,0.0075 0.142,-0.09063 0,-0.182499 -1.13978,-0.991296 -1.39696,-0.991296 -0.20455,0 -0.17587,0.582253 0.0374,0.75925 0.0989,0.08209 0.21907,0.305565 0.26702,0.496614 0.0852,0.339356 0.0916,0.341452 0.27708,0.09095 0.18766,-0.253374 0.19209,-0.253461 0.3744,-0.0074 0.10147,0.136957 0.18449,0.295707 0.18449,0.352778 0,0.05707 0.0335,0.103764 0.0743,0.103764 0.0409,0 0.0347,-0.180404 -0.0137,-0.400898 z m -9.77884,-0.07661 c -0.0886,-0.03165 -0.13033,-0.107417 -0.0926,-0.168381 0.0377,-0.06096 -0.12145,-0.146481 -0.35362,-0.190036 -0.87836,-0.164781 -1.30317,-0.857979 -1.00553,-1.640822 0.18792,-0.494268 -0.0578,-0.542548 -0.28348,-0.05571 -0.224174,0.483518 -0.164568,1.069786 0.15135,1.488605 0.2117,0.280657 1.54583,0.827958 1.68094,0.689572 0.0353,-0.03613 -0.008,-0.09159 -0.097,-0.123231 z m 0.65817,-2.954058 c -0.59845,-2.922989 -0.66002,-3.829595 -0.43368,-6.386095 0.12226,-1.380846 0.47017,-2.699158 0.96473,-3.655538 0.29334,-0.567257 1.26011,-1.589159 1.96338,-2.075357 0.66827,-0.461998 1.78403,-0.662992 2.27279,-0.409422 0.28184,0.146219 0.31606,0.13792 0.31606,-0.07663 0,-0.77567 -0.74321,-1.411854 -1.64937,-1.411854 -0.73075,0 -1.71656,0.401053 -2.42013,0.984572 -0.3254,0.269874 -0.9367,0.771392 -1.35845,1.114485 -0.98045,0.797607 -1.30769,1.164174 -1.67627,1.87771 -0.39361,0.762001 -0.926709,2.186889 -1.174792,3.140022 -0.322403,1.238665 -0.132656,4.411787 0.302212,5.053854 0.125511,0.185312 0.298937,0.50145 0.385391,0.702528 0.08645,0.201077 0.271249,0.395424 0.410669,0.431881 0.13941,0.03646 0.25347,0.146144 0.25347,0.243747 0,0.0976 0.0645,0.177463 0.14325,0.177463 0.088,0 0.11075,-0.111355 0.059,-0.288636 -0.18035,-0.618098 -0.3453,-1.894418 -0.30535,-2.3626 0.0346,-0.405288 0.10628,-0.221177 0.40795,1.047701 0.2013,0.846666 0.47962,1.712576 0.61851,1.924242 l 0.25251,0.384849 -0.0728,-0.384849 c -0.04,-0.211666 -0.18472,-0.881078 -0.32148,-1.487582 -0.30406,-1.348383 -0.44765,-3.54672 -0.2883,-4.413428 0.10487,-0.570331 0.12023,-0.477924 0.13861,0.833839 0.0114,0.811388 0.068,1.706161 0.12576,1.988383 0.29628,1.446709 1.06317,3.912627 1.21681,3.912627 0.0257,0 -0.033,-0.38966 -0.13049,-0.86591 z m -2.21871,-1.261447 c 0.006,-0.149443 0.0366,-0.17984 0.0775,-0.07751 0.0371,0.0926 0.0325,0.203248 -0.0101,0.245876 -0.0426,0.04263 -0.0729,-0.03314 -0.0674,-0.168371 z m -0.17721,-0.397695 c -0.03548,-0.05761 -0.102137,-0.393383 -0.148137,-0.746161 -0.046,-0.352777 -0.110448,-0.7713 -0.143218,-0.93005 -0.03277,-0.15875 -0.01201,-0.288636 0.04613,-0.288636 0.116687,0 0.469735,1.909579 0.371255,2.008059 -0.0339,0.03384 -0.0906,0.0144 -0.12603,-0.04321 z m 1.22131,-5.492625 c 0.001,-0.141111 0.0465,-0.429748 0.10032,-0.641414 0.088,-0.345686 0.0982,-0.352213 0.10032,-0.06414 0.001,0.176389 -0.0438,0.465026 -0.10032,0.641414 -0.0805,0.251306 -0.10219,0.265186 -0.10032,0.06414 z m 0.23253,-1.154546 c 0,-0.07055 0.056,-0.214873 0.12435,-0.320707 0.0684,-0.105833 0.12436,-0.134697 0.12436,-0.06414 0,0.07056 -0.056,0.214874 -0.12436,0.320707 -0.0684,0.105833 -0.12435,0.134697 -0.12435,0.06414 z m 0.25264,-0.746418 c 0,-0.101358 0.082,-0.252383 0.18233,-0.33561 0.1497,-0.124245 0.16989,-0.103744 0.1128,0.114575 -0.0839,0.3209 -0.29513,0.479086 -0.29513,0.221035 z m 12.36045,7.12698 c 0.10626,-0.334308 0.22541,-0.80988 0.26477,-1.056824 l 0.0716,-0.44899 -0.18503,0.384848 c -0.10177,0.211667 -0.18764,0.478613 -0.19083,0.593215 -0.003,0.114601 -0.0906,0.448866 -0.19434,0.742811 -0.10371,0.293945 -0.13699,0.502569 -0.0739,0.463609 0.063,-0.03896 0.20155,-0.34436 0.30781,-0.678669 z m -4.44321,-0.535579 c -0.0409,-0.630537 -0.13599,-1.261742 -0.21142,-1.402678 -0.0754,-0.140935 -0.13714,-0.543956 -0.13714,-0.895601 0,-0.756435 -0.0916,-1.045188 -0.33147,-1.045188 -0.2678,0 -0.63574,0.623498 -0.46732,0.791915 0.0755,0.07553 0.10913,0.210807 0.0747,0.300616 -0.22012,0.573633 0.56511,3.397367 0.94475,3.397367 0.17453,0 0.19204,-0.156864 0.12793,-1.146431 z m -3.25752,-0.593746 c 0.0658,-0.207069 0.15555,-1.138919 0.19941,-2.070778 0.0914,-1.940846 0.16204,-2.067744 1.17016,-2.100856 0.3175,-0.01043 0.46182,-0.04673 0.32071,-0.08067 -0.46808,-0.112588 -0.47408,-0.260114 -0.0141,-0.34641 0.5585,-0.104773 0.65912,-0.245729 0.37689,-0.52796 -0.16357,-0.16357 -0.35961,-0.200739 -0.79809,-0.151316 -0.89886,0.101315 -1.48149,0.811829 -1.6769,2.044978 -0.18977,1.197535 -0.48869,2.399118 -0.5351,2.15097 -0.0198,-0.105833 -0.0384,-0.652698 -0.0413,-1.215255 -0.005,-0.884963 -0.0369,-1.029132 -0.23937,-1.069577 -0.12872,-0.02571 -0.34983,0.05804 -0.49134,0.186104 -0.2983,0.269954 -0.2731,0.542777 0.14644,1.585597 0.15612,0.388056 0.31368,0.835442 0.35014,0.994192 0.0365,0.15875 0.14614,0.288636 0.24375,0.288636 0.0976,0 0.17747,0.06761 0.17747,0.150253 0,0.213609 0.40513,0.634065 0.56092,0.582136 0.0719,-0.02395 0.1845,-0.212972 0.25032,-0.420041 z m 4.92227,-1.274469 c 0.7182,-1.592527 1.45033,-4.481395 1.45033,-5.722757 0,-0.761721 -0.20988,-0.594021 -0.29869,0.238666 -0.0996,0.934285 -0.4219,2.144694 -1.23628,4.643662 -0.35521,1.089987 -0.64584,2.003314 -0.64584,2.029617 0,0.197392 0.39559,-0.44661 0.73048,-1.189188 z m 1.06548,1.090404 c 0,-0.07055 -0.0611,-0.128283 -0.13585,-0.128283 -0.0747,0 -0.10018,0.05773 -0.0566,0.128283 0.0436,0.07056 0.10474,0.128283 0.13585,0.128283 0.0311,0 0.0566,-0.05773 0.0566,-0.128283 z m 1.30388,-3.207071 c 0.0939,-0.850434 0.10737,-1.583415 0.0365,-1.988383 -0.10083,-0.575897 -0.12064,-0.471068 -0.1939,1.026262 -0.0489,0.998534 -0.19228,2.122126 -0.35746,2.800281 -0.36013,1.478585 -0.33804,1.674028 0.0532,0.470931 0.17209,-0.529166 0.37984,-1.568257 0.46166,-2.309091 z m -5.81391,2.24495 0.16064,-0.384849 -0.32221,0.384849 c -0.17721,0.211667 -0.32428,0.498716 -0.32682,0.637888 -0.005,0.251862 -0.004,0.251862 0.16157,0 0.0914,-0.139172 0.23847,-0.426221 0.32682,-0.637888 z m 4.46938,0.296654 c -0.041,-0.102335 -0.0714,-0.07194 -0.0775,0.0775 -0.006,0.13523 0.0247,0.210998 0.0674,0.168371 0.0426,-0.04263 0.0472,-0.153273 0.0101,-0.245876 z m 2.73294,-2.310794 c 9e-4,-0.472778 -0.0524,-1.136641 -0.11853,-1.475253 -0.0661,-0.338612 -0.15324,-1.047327 -0.19366,-1.574922 -0.0624,-0.814412 -0.14129,-1.061395 -0.52254,-1.635606 -0.40773,-0.614081 -0.42533,-0.676342 -0.19119,-0.676342 0.14183,0 0.25787,-0.05773 0.25787,-0.128282 0,-0.07056 -0.0645,-0.128283 -0.14324,-0.128283 -0.0788,0 -0.11447,-0.110019 -0.0793,-0.244487 0.11513,-0.440271 -0.77531,-1.41975 -1.29306,-1.422345 -0.53742,-0.0027 -1.44599,0.571267 -1.81527,1.146735 -0.21412,0.333685 -0.38932,0.638189 -0.38932,0.676676 0,0.03849 0.2265,-0.0081 0.50334,-0.103437 1.04884,-0.361357 2.40977,0.404246 2.97004,1.670823 0.45867,1.036885 0.66698,2.556225 0.57054,4.161243 -0.0482,0.802698 -0.11305,1.553152 -0.14405,1.667677 -0.031,0.114524 0.0883,-0.08041 0.26519,-0.433188 0.24653,-0.491786 0.32193,-0.84194 0.32319,-1.501009 z m -2.3094,1.661362 c -0.001,-0.08819 -0.0579,-0.246944 -0.12632,-0.352778 -0.0969,-0.149946 -0.12479,-0.114549 -0.12632,0.160354 -0.001,0.194028 0.0558,0.352778 0.12632,0.352778 0.0705,0 0.1274,-0.07216 0.12632,-0.160354 z m -4.91706,-1.576997 c 0.10389,-0.270721 -0.0695,-0.416881 -0.2173,-0.183177 -0.15705,0.248324 -0.1539,0.381134 0.009,0.381134 0.0728,0 0.16649,-0.08908 0.20827,-0.197957 z m 0.49326,0.06967 c 0.0436,-0.07056 -0.0107,-0.128283 -0.12071,-0.128283 -0.11,0 -0.19999,0.05773 -0.19999,0.128283 0,0.07055 0.0543,0.128283 0.12071,0.128283 0.0664,0 0.15639,-0.05773 0.19999,-0.128283 z m -1.0904,-0.106902 c 0,-0.167034 -0.1525,-0.278122 -0.27655,-0.201453 -0.13268,0.082 -0.0183,0.308355 0.15584,0.308355 0.0664,0 0.12071,-0.04811 0.12071,-0.106902 z m 1.10089,-0.534512 c 0.10007,0 0.18194,-0.05773 0.18194,-0.128283 0,-0.07056 -0.23091,-0.128283 -0.51313,-0.128283 -0.28223,0 -0.51314,0.05292 -0.51314,0.117593 0,0.153574 0.27479,0.261437 0.49156,0.192951 0.094,-0.02969 0.25271,-0.05398 0.35277,-0.05398 z m 2.25295,-1.626263 c 0.9028,-0.887851 1.39262,-1.81676 1.39262,-2.640982 0,-0.334127 -0.0577,-0.607503 -0.12828,-0.607503 -0.0706,0 -0.12828,0.217332 -0.12828,0.482961 0,0.265628 -0.12094,0.708602 -0.26875,0.984386 -0.27693,0.516696 -0.47182,0.709508 -1.62342,1.606158 -0.42948,0.334393 -0.67349,0.621294 -0.67349,0.79187 0,0.448508 0.61699,0.182271 1.4296,-0.61689 z m -4.63667,0.178135 c 0,-0.09092 -0.11197,-0.384928 -0.24883,-0.653361 -0.32716,-0.641704 -0.45735,-1.743056 -0.2859,-2.418514 0.17108,-0.67401 0.10463,-0.759142 -0.17319,-0.221894 -0.16605,0.32111 -0.20392,0.679075 -0.16981,1.605359 0.0387,1.05204 0.0804,1.230966 0.35489,1.522905 0.34127,0.363003 0.52284,0.420479 0.52284,0.165505 z"
         id="path4748"
         inkscape:connector-curvature="0" />
      <path
         style="fill:#040000;stroke-width:0.12828283"
         d="m 105.32107,105.40275 c -7.082444,-0.65849 -12.59343,-6.212347 -13.217148,-13.319956 -0.391696,-4.463588 1.066087,-8.587417 4.152444,-11.746585 2.825713,-2.892376 6.361324,-4.339121 10.604094,-4.339121 4.24277,0 7.77838,1.446745 10.60409,4.339121 5.41532,5.54307 5.67318,14.240657 0.59703,20.137941 -3.05322,3.54712 -7.8095,5.38706 -12.74051,4.9286 z m -5.797044,-5.69243 c 0.191287,-0.09892 0.643784,-0.503009 1.005544,-0.897979 0.56606,-0.618026 0.72234,-0.718129 1.12109,-0.718129 0.44995,0 0.60453,-0.154164 0.32673,-0.325851 -0.23981,-0.148208 -0.98978,0.0675 -1.2584,0.361933 -1.154126,1.265064 -1.287398,1.375029 -1.666451,1.375029 -0.436898,0 -0.787028,-0.385662 -0.787028,-0.866895 0,-0.647269 0.62689,-1.175687 1.635606,-1.37868 0.400093,-0.08052 0.603373,-0.448364 0.247783,-0.448364 -0.470158,0 -1.505286,0.427659 -1.86333,0.769825 -0.344921,0.329625 -0.404276,0.477061 -0.40064,0.99518 0.0075,1.073188 0.755682,1.590761 1.639096,1.133931 z m 3.025234,-0.151348 c 0.16086,-0.419187 0.0861,-1.208194 -0.11456,-1.208194 -0.10583,0 -0.19242,0.08178 -0.19242,0.181734 0,0.09995 -0.066,0.20375 -0.14678,0.23066 -0.10911,0.03637 -0.10656,0.170809 0.01,0.523823 0.16754,0.507678 0.31799,0.599871 0.44381,0.271977 z m 5.20468,-0.301816 c 0.0922,-0.172199 0.0906,-0.358726 -0.005,-0.609343 -0.52168,-1.367686 -0.36668,-1.785484 0.94781,-2.554853 1.13541,-0.664557 2.86144,-2.164417 3.02251,-2.626459 0.11415,-0.32745 0.0941,-0.425428 -0.13388,-0.653379 -0.23308,-0.233075 -0.3667,-0.257862 -1.02132,-0.189443 l -0.75314,0.07872 v -0.761471 c 0,-0.418809 -0.0866,-1.093917 -0.19243,-1.500238 -0.10583,-0.406322 -0.19242,-1.039417 -0.19242,-1.406878 0,-0.812963 -0.0898,-1.07522 -0.36651,-1.069864 -0.24432,0.0047 -0.6871,0.310659 -0.59007,0.407696 0.0361,0.03614 -0.1868,0.347928 -0.49541,0.692872 -0.70165,0.784251 -0.89385,1.14313 -0.78905,1.473332 0.12856,0.405055 0.60885,0.267085 0.71275,-0.204748 0.30263,-1.374222 0.55114,-1.32655 0.66874,0.128283 0.0741,0.916119 0.34458,1.749055 0.69683,2.145475 0.17999,0.202561 0.16537,0.232165 -0.17313,0.350743 -0.92802,0.325086 -1.31344,0.688427 -1.15852,1.092148 0.0654,0.170319 0.19448,0.211062 0.54078,0.170634 l 0.45493,-0.05311 -0.39209,0.366436 c -0.21564,0.20154 -0.39208,0.414965 -0.39208,0.474277 0,0.210292 -1.34748,1.458653 -1.76094,1.631406 -0.5203,0.217397 -0.5608,0.6446 -0.0992,1.045989 0.22008,0.191363 0.32034,0.409924 0.31955,0.696619 -9e-4,0.31538 0.1013,0.503382 0.41692,0.767095 0.50169,0.419192 0.56295,0.428208 0.73428,0.108061 z m -2.53267,-0.341249 c 0.0575,-0.204988 0.0462,-0.978841 -0.0251,-1.719675 -0.0713,-0.740833 -0.11569,-2.505403 -0.0986,-3.921266 0.0339,-2.806316 -0.0132,-3.006006 -0.70779,-3.006006 -0.40217,0 -0.55061,0.322092 -0.74811,1.623197 -0.15668,1.032162 -0.15324,1.063359 0.26126,2.370906 0.50571,1.595301 0.56818,2.730996 0.21733,3.951254 -0.27281,0.948845 -0.18964,1.108397 0.56643,1.086658 0.36057,-0.01036 0.44686,-0.07253 0.53457,-0.385068 z m 5.82326,-1.591392 c -0.10183,-0.6368 0.10162,-0.677165 0.3233,-0.06414 0.16789,0.464303 0.36738,0.599506 0.36738,0.248994 0,-0.109997 0.0577,-0.164317 0.12828,-0.120712 0.12777,0.07897 0.18128,-0.09533 0.13363,-0.43533 -0.0138,-0.09832 0.0478,-0.223807 0.13691,-0.27886 0.22571,-0.139496 -0.0292,-0.428919 -0.56343,-0.639739 -0.22697,-0.08957 -0.52812,-0.260355 -0.66923,-0.379535 -0.65548,-0.553603 -0.86948,-0.401645 -1.02163,0.725437 -0.0978,0.724284 0.10939,1.079753 0.25169,0.431875 0.0466,-0.212283 0.13091,-0.385969 0.1873,-0.385969 0.11266,0 0.33508,0.507482 0.46385,1.058334 0.13154,0.562734 0.35564,0.425552 0.26195,-0.160354 z m -8.9979,-0.251347 c 0.13913,-0.225118 -0.24733,-0.651574 -0.70233,-0.775022 -0.24695,-0.067 -0.58544,-0.21771 -0.75222,-0.334914 -0.27966,-0.196539 -0.29661,-0.271553 -0.21812,-0.965302 0.0651,-0.575444 0.0459,-0.751968 -0.0816,-0.751202 -0.24925,0.0015 -0.487436,0.617281 -0.487436,1.260185 0,0.87769 0.730326,1.466863 2.077026,1.675581 0.0487,0.0076 0.12287,-0.04164 0.1647,-0.109326 z m 1.43221,-0.454208 c -1.0866,-2.851581 -1.43004,-4.621838 -1.41861,-7.312122 0.01,-2.252055 0.13692,-3.212572 0.58682,-4.425757 0.43826,-1.181792 0.52548,-1.31529 1.4775,-2.261588 1.26019,-1.252612 2.36904,-1.637534 3.08804,-1.071969 0.43434,0.341657 0.47654,0.265634 0.28823,-0.519321 -0.20651,-0.860827 -0.64081,-1.149195 -1.73076,-1.14919 -1.02092,4e-6 -1.83315,0.411756 -3.36237,1.704515 -1.82539,1.543125 -2.2211,2.133141 -3.006695,4.483102 -0.374042,1.118869 -0.396773,1.29797 -0.392309,3.091133 0.0029,1.149021 0.06534,2.064226 0.157636,2.309091 0.270387,0.717341 0.563304,1.286333 1.055498,2.050318 0.26459,0.410685 0.48106,0.807154 0.48106,0.881045 0,0.07389 0.15875,0.327459 0.35278,0.563485 0.19403,0.236025 0.48988,0.60785 0.65745,0.826276 0.17332,0.225929 0.38071,0.367957 0.48106,0.32945 0.097,-0.03723 0.17639,-0.01177 0.17639,0.05657 0,0.252501 0.49789,0.611245 0.82237,0.592542 0.18414,-0.01061 0.3128,-0.07702 0.28591,-0.147577 z m -0.59515,-0.135855 c 0,-0.109997 0.0577,-0.164317 0.12829,-0.120711 0.0706,0.04361 0.12828,0.133604 0.12828,0.199995 0,0.06639 -0.0577,0.120712 -0.12828,0.120712 -0.0706,0 -0.12829,-0.09 -0.12829,-0.199996 z m -1.3757,-1.563893 c -0.47964,-1.203599 -0.5591,-1.443182 -0.47863,-1.443182 0.0665,0 0.69979,1.338678 0.69979,1.4793 0,0.04655 0.11375,0.244375 0.25277,0.43962 0.22859,0.321018 0.23079,0.518454 0.006,0.518454 -0.046,0 -0.26182,-0.447386 -0.47972,-0.994192 z m 12.12441,-1.156164 c 0.63928,-1.829085 1.30988,-3.974481 1.30988,-4.190592 0,-0.110812 0.0488,-0.201476 0.10849,-0.201476 0.0597,0 0.0294,0.418523 -0.0674,0.93005 -0.20773,1.098603 -0.15866,1.544305 0.0847,0.769697 0.0942,-0.299861 0.21109,-0.545202 0.25969,-0.545202 0.0486,0 0.19034,-0.58045 0.31496,-1.289889 0.22497,-1.280722 0.19809,-2.248643 -0.13338,-4.803545 -0.0692,-0.533426 -0.49576,-1.516825 -0.94593,-2.180808 -0.14351,-0.211667 -0.26131,-0.485871 -0.26177,-0.609343 -4.7e-4,-0.123473 -0.23176,-0.455405 -0.51398,-0.737627 -0.40495,-0.404952 -0.60865,-0.513131 -0.96624,-0.513131 -0.48809,0 -1.25277,0.273384 -1.51192,0.540535 -0.33494,0.345275 -0.72891,0.982526 -0.72891,1.179015 0,0.112581 -0.0559,0.204692 -0.12426,0.204692 -0.0683,0 -0.0905,0.08784 -0.0494,0.195199 0.0609,0.158794 0.13082,0.134869 0.3747,-0.128283 0.5679,-0.612779 1.66473,-0.348726 2.65278,0.63864 0.41916,0.418865 0.74943,1.298402 0.98954,2.635228 0.20215,1.12549 0.20788,1.396483 0.0546,2.582322 -0.0942,0.728681 -0.23147,1.584647 -0.3051,1.902147 -0.56994,2.457885 -0.94846,3.935567 -1.10266,4.30462 -0.23792,0.569422 -0.23996,0.778623 -0.006,0.584215 0.0965,-0.08008 0.35174,-0.649993 0.5672,-1.266464 z m 1.45842,-9.138533 c 0,-0.176389 0.0291,-0.248548 0.0647,-0.160353 0.0356,0.08819 0.0356,0.232512 0,0.320707 -0.0356,0.08819 -0.0647,0.01604 -0.0647,-0.160354 z m -2.20302,8.17803 c 0.2086,-0.229305 0.38097,-0.465922 0.38304,-0.525814 0.002,-0.05989 0.0841,-0.290802 0.18236,-0.513132 0.2923,-0.661585 0.65772,-2.937516 0.59012,-3.675447 -0.0281,-0.30722 -0.0339,-0.304522 -0.13703,0.06414 -0.0683,0.244268 -0.0825,-0.0075 -0.0388,-0.689316 0.0756,-1.179322 -0.0545,-3.22331 -0.2053,-3.22331 -0.0523,0 -0.12985,0.79375 -0.17224,1.763889 -0.0788,1.803775 -0.1336,2.116697 -0.86082,4.917894 -0.26752,1.030446 -0.38814,1.738238 -0.33341,1.956313 0.10847,0.432185 0.13333,0.429026 0.59205,-0.07522 z m 0.5241,-3.185689 c 0.005,-0.17051 0.0613,-0.425472 0.12526,-0.566583 0.081,-0.178814 0.0926,-0.101061 0.0381,0.256565 -0.0907,0.595618 -0.1764,0.758265 -0.16336,0.310018 z m -6.46955,2.76877 c 0.0406,-0.105833 0.041,-0.278041 7.7e-4,-0.382685 -0.0959,-0.249988 -0.46757,-0.104846 -0.46757,0.182605 0,0.399768 0.33501,0.543375 0.46674,0.20008 z m 5.28518,-1.019802 c 0.28123,-0.476643 0.88798,-2.799352 0.92324,-3.534238 0.0393,-0.819167 -0.003,-1.411111 -0.10132,-1.411111 -0.10537,0 -0.62057,1.277787 -0.72413,1.795959 -0.0353,0.176389 -0.16021,0.724798 -0.2777,1.218687 -0.32179,1.35275 -0.42036,2.228435 -0.25841,2.295583 0.0761,0.03157 0.14715,0.06195 0.15782,0.06752 0.0107,0.0056 0.1369,-0.189011 0.2805,-0.432402 z m -5.74545,-0.230955 c 0.23261,-0.374064 0.25584,-0.599551 0.22603,-2.193652 -0.0304,-1.62397 -0.0121,-1.792172 0.21236,-1.956313 0.13508,-0.09877 0.36445,-0.178697 0.50971,-0.177616 0.20822,0.0015 0.22514,0.02663 0.0799,0.118505 -0.14334,0.09071 -0.1507,0.156874 -0.0332,0.298476 0.15019,0.180974 0.0862,0.350751 -0.1323,0.350751 -0.063,0 -0.0754,-0.06328 -0.0276,-0.140615 0.0539,-0.08728 -0.004,-0.123356 -0.15278,-0.09511 -0.31087,0.05901 -0.40696,0.717339 -0.12073,0.827174 0.11015,0.04227 0.17238,0.121992 0.13828,0.17716 -0.0341,0.05517 0.0258,0.173139 0.13303,0.262159 0.16048,0.133182 0.22587,0.119666 0.36917,-0.0763 0.0958,-0.130986 0.14297,-0.319395 0.10486,-0.418688 -0.0507,-0.132217 -2.5e-4,-0.158629 0.18859,-0.09869 0.1609,0.05107 0.32084,0.006 0.42535,-0.119972 0.14254,-0.171751 0.12613,-0.21263 -0.11017,-0.274424 -0.37954,-0.09925 -0.35077,-0.299252 0.043,-0.299252 0.30894,0 0.42879,-0.234006 0.2245,-0.4383 -0.0529,-0.05292 -0.0962,-0.160958 -0.0962,-0.240092 0,-0.07913 -0.14432,-0.186987 -0.32071,-0.239673 -0.27171,-0.08116 -0.25241,-0.09184 0.12633,-0.06992 0.54412,0.03149 0.66496,-0.273242 0.2664,-0.6718 -0.34978,-0.349787 -1.1426,-0.353739 -1.58228,-0.0079 -0.39373,0.309704 -0.47813,0.31914 -0.47813,0.05345 0,-0.111713 -0.0716,-0.179233 -0.15921,-0.150045 -0.647,0.215668 -1.1563,-2.143528 -0.67939,-3.147135 0.25124,-0.528705 0.19363,-0.739685 -0.12888,-0.472026 -0.86394,0.717008 -0.85524,3.190394 0.0139,3.945223 0.26347,0.228822 0.37734,0.261017 0.51604,0.145905 0.27625,-0.229266 0.38943,0.221419 0.12812,0.510165 -0.12695,0.140287 -0.25687,0.615306 -0.32323,1.181838 -0.15886,1.356282 -0.39437,1.875019 -0.30039,0.66165 0.0803,-1.036519 -0.0297,-1.188801 -0.6983,-0.967268 -0.3061,0.101415 -0.36273,0.196585 -0.39713,0.667349 -0.0221,0.301987 0.0434,0.730454 0.14558,0.952151 0.10215,0.221697 0.26333,0.633994 0.35819,0.916217 0.17762,0.528429 0.95349,1.603535 1.15722,1.603535 0.0631,0 0.23138,-0.187614 0.37398,-0.416919 z m 1.50887,-4.288895 c 0.0926,-0.03706 0.20325,-0.0325 0.24588,0.01013 0.0426,0.04263 -0.0331,0.07295 -0.16837,0.06738 -0.14945,-0.0062 -0.17984,-0.03655 -0.0775,-0.0775 z m 2.80406,4.160612 c 1.03403,-1.638249 2.26704,-6.258207 2.01139,-7.536438 -0.11652,-0.582618 -0.26742,-0.462982 -0.36383,0.288458 -0.14498,1.129942 -0.3703,1.945542 -1.43429,5.191775 -0.30574,0.932839 -0.5559,1.813179 -0.5559,1.956314 0,0.290706 0.18766,0.345418 0.34263,0.09989 z m 0.47266,-3.776377 c 0.24761,-0.781112 0.25054,-0.809734 0.0827,-0.809734 -0.0706,0 -0.12828,0.132773 -0.12828,0.29505 0,0.162278 -0.0517,0.349892 -0.11477,0.416919 -0.0631,0.06703 -0.1558,0.323915 -0.20594,0.570859 -0.13155,0.647864 0.10976,0.336194 0.3663,-0.473094 z m -1.71327,-0.681451 c 0,-0.07056 0.088,-0.128283 0.19562,-0.128283 0.27768,0 1.64885,-1.436999 1.98994,-2.085467 0.18376,-0.349356 0.29162,-0.792377 0.30113,-1.236827 0.0183,-0.85275 -0.23463,-1.023357 -0.35946,-0.242515 -0.1368,0.855634 -0.61387,1.529256 -1.60504,2.266297 -0.86148,0.640599 -1.17509,1.096866 -0.97569,1.419504 0.10637,0.1721 0.4535,0.177681 0.4535,0.0073 z"
         id="path4746"
         inkscape:connector-curvature="0" />
    </g>
  </g>
</svg>
